<svg xmlns="http://www.w3.org/2000/svg" width="640" height="712" fill="none" viewBox="0 0 640 712">
  <path fill="#322E2F" d="M161 401a1 1 0 0 0-1-1H1a1 1 0 0 0-1 1v310a1 1 0 0 0 1 1h478a1 1 0 0 0 1-1V597.5a1 1 0 0 0-1-1H321a1 1 0 0 1-1-1v-95a1 1 0 0 0-1-1H162a1 1 0 0 1-1-1V401Z"/>
  <path fill="#12A4D9" d="M640 0H480v712h160z"/>
  <path fill="#D9138A" d="M480 0H320v600h160z"/>
  <path fill="#E2D810" d="M320 0H160v500h160z"/>
  <path fill="#A800A8" d="M160 0H0v400h160z"/>
  <path fill="#fff" d="M91 245.355v8.827H59.747v-3.52c0-.942-.036-2.364-.107-4.267a104.194 104.194 0 0 1-.133-4.693c0-3.449.915-6.062 2.746-7.84 1.831-1.778 4.578-2.667 8.24-2.667 2.205 0 4.214.294 6.027.88 1.796.569 3.271 1.343 4.427 2.32 1.155.978 2.044 2.089 2.666 3.334a8.706 8.706 0 0 1 .934 3.946v1.067c-.018.142-.027.32-.027.533a5.523 5.523 0 0 0-.027.48 3.19 3.19 0 0 0-.026.48 5.365 5.365 0 0 0-.027.4 5.3 5.3 0 0 1-.027.4 10.07 10.07 0 0 0-.026.32H91Zm-21.68-5.413c-1.316 0-2.382.356-3.2 1.067-.818.711-1.227 1.733-1.227 3.066v1.28H78.76v-.986c0-1.405-.471-2.489-1.413-3.254-.943-.782-2.303-1.173-4.08-1.173H69.32ZM91 223.449h-9.76l-21.493 8.853v-10.107l8.053-2.746 6.587-1.84-6.587-1.52-8.053-2.08v-7.947l21.333 7.813H91v9.574Zm0-22.743H66.813v6.24h-7.066v-21.493h7.066v6.24H91v9.013Zm0-26.444v8.826H59.747v-8.826H72.12v-6.854H59.747v-8.826H91v8.826H78.253v6.854H91Zm-12.08-28.261c2.951 0 5.004-.222 6.16-.666 1.156-.462 1.733-1.262 1.733-2.4 0-.836-.204-1.467-.613-1.894-.427-.426-1.289-.746-2.587-.96-1.315-.231-3.28-.346-5.893-.346h-6.427c-2.542 0-4.435.249-5.68.746-1.244.498-1.866 1.316-1.866 2.454 0 1.138.613 1.938 1.84 2.4 1.209.444 3.422.666 6.64.666h6.693Zm12.64-2.506c0 1.475-.133 2.809-.4 4-.267 1.173-.64 2.186-1.12 3.04a8.271 8.271 0 0 1-1.84 2.24 10.714 10.714 0 0 1-2.4 1.52c-.853.373-1.849.675-2.987.906a28.713 28.713 0 0 1-3.44.48 51.103 51.103 0 0 1-3.893.134c-2.133 0-3.991-.107-5.573-.32a17.35 17.35 0 0 1-4.454-1.254c-1.404-.604-2.542-1.404-3.413-2.4-.871-1.013-1.556-2.311-2.053-3.893-.498-1.6-.747-3.484-.747-5.653 0-1.494.142-2.836.427-4.027.266-1.191.64-2.213 1.12-3.067a7.695 7.695 0 0 1 1.866-2.213 9.859 9.859 0 0 1 2.454-1.52c.853-.391 1.857-.702 3.013-.933a29.127 29.127 0 0 1 3.44-.48 50.043 50.043 0 0 1 3.867-.134c2.133 0 3.99.116 5.573.347 1.582.231 3.067.649 4.453 1.253 1.37.605 2.49 1.414 3.36 2.427.854 1.013 1.53 2.32 2.027 3.92.48 1.582.72 3.458.72 5.627ZM91 118.671v8.48H62.253l-2.506 1.306v-9.813l10.133-4.906 10.107-4.694-11.867 1.307h-8.373v-8.507H91v8.133l-12.347 6.347-7.733 3.92 10.24-1.573H91Z"/>
  <path fill="#006D7C" d="M253.627 343.344c0-1.351-.836-2.382-2.507-3.093-1.671-.729-4.427-1.094-8.267-1.094h-2.693c-2.809 0-4.978.338-6.507 1.014-1.529.675-2.293 1.635-2.293 2.88v2h22.267v-1.707Zm4.56-.827c0 .64-.036 1.636-.107 2.987-.053 1.333-.08 2.711-.08 4.133v4.24h-31.253v-4.24a110.717 110.717 0 0 0-.134-3.893 69.378 69.378 0 0 1-.106-3.307c0-4.533 1.271-7.777 3.813-9.733 2.542-1.973 6.249-2.96 11.12-2.96 1.653 0 3.227.116 4.72.347 1.493.213 2.996.622 4.507 1.226 1.493.605 2.782 1.369 3.866 2.294 1.085.924 1.965 2.151 2.64 3.68.676 1.529 1.014 3.271 1.014 5.226Zm.32-20.8c0 1.298-.169 2.471-.507 3.52-.356 1.049-.711 1.76-1.067 2.133l-5.52.08c.32-.587.534-1.058.64-1.413.107-.356.16-.818.16-1.387 0-.96-.284-1.715-.853-2.267-.569-.568-1.529-.853-2.88-.853h-19.387l-2.346 1.28v-9.947h21.226c1.245 0 2.356.072 3.334.214.96.124 1.911.382 2.853.773.924.391 1.698.907 2.32 1.547.604.64 1.093 1.493 1.467 2.56.373 1.066.56 2.32.56 3.76Zm-.507-27.47-4.987 1.2v7.574l4.987 1.013v7.84l-29.093-8.133-2.16.64v-11.014L258 284.461v9.786Zm-22.08 5.334 11.653 2.346v-5.173l-11.653 2.827ZM258 274.929v8.48h-28.747l-2.506 1.306v-9.813l10.133-4.907 10.107-4.693-11.867 1.307h-8.373v-8.507H258v8.133l-12.347 6.347-7.733 3.92 10.24-1.573H258Zm-2.827-39.467c2.258 2.258 3.387 4.943 3.387 8.054 0 2.204-.382 4.115-1.147 5.733-.764 1.6-1.866 2.871-3.306 3.813-1.44.943-3.085 1.636-4.934 2.08-1.849.427-3.955.64-6.32.64-1.76 0-3.342-.088-4.746-.266a22.535 22.535 0 0 1-4.027-.934c-1.28-.426-2.382-1.013-3.307-1.76a11.073 11.073 0 0 1-2.453-2.746c-.693-1.085-1.209-2.4-1.547-3.947-.355-1.547-.533-3.307-.533-5.28 0-.889.053-1.733.16-2.533.107-.818.24-1.511.4-2.08a8.932 8.932 0 0 1 .56-1.6c.213-.516.409-.916.587-1.2a5.48 5.48 0 0 1 .533-.827c.196-.249.329-.4.4-.453l.16-.16 6.133.4v4.853l-3.546 1.52c-.214.391-.32 1.022-.32 1.893 0 .712.062 1.298.186 1.76.125.463.391.925.8 1.387.391.445.969.8 1.734 1.067.746.249 1.769.453 3.066.613 1.28.16 2.845.24 4.694.24 3.857 0 6.72-.204 8.586-.613 1.867-.427 2.8-1.271 2.8-2.534 0-.622-.053-1.146-.16-1.573a3.396 3.396 0 0 0-.64-1.2c-.32-.373-.782-.649-1.386-.827-.623-.177-1.414-.266-2.374-.266h-2.72l-.8 3.52h-5.44v-11.867l18.347.027v4.746l-2.827.32Zm-9.253-16.796c2.951 0 5.004-.223 6.16-.667 1.156-.462 1.733-1.262 1.733-2.4 0-.836-.204-1.467-.613-1.893-.427-.427-1.289-.747-2.587-.96-1.315-.232-3.28-.347-5.893-.347h-6.427c-2.542 0-4.435.249-5.68.747-1.244.497-1.866 1.315-1.866 2.453s.613 1.938 1.84 2.4c1.209.444 3.422.667 6.64.667h6.693Zm12.64-2.507c0 1.475-.133 2.809-.4 4-.267 1.173-.64 2.187-1.12 3.04a8.266 8.266 0 0 1-1.84 2.24 10.727 10.727 0 0 1-2.4 1.52c-.853.373-1.849.675-2.987.907a29.104 29.104 0 0 1-3.44.48 51.644 51.644 0 0 1-3.893.133c-2.133 0-3.991-.107-5.573-.32a17.388 17.388 0 0 1-4.454-1.253c-1.404-.605-2.542-1.405-3.413-2.4-.871-1.014-1.556-2.312-2.053-3.894-.498-1.6-.747-3.484-.747-5.653 0-1.493.142-2.836.427-4.027.266-1.191.64-2.213 1.12-3.066a7.69 7.69 0 0 1 1.866-2.214 9.902 9.902 0 0 1 2.454-1.52c.853-.391 1.857-.702 3.013-.933a29.132 29.132 0 0 1 3.44-.48 50.092 50.092 0 0 1 3.867-.133c2.133 0 3.991.115 5.573.346 1.582.231 3.067.649 4.453 1.254 1.369.604 2.489 1.413 3.36 2.426.854 1.014 1.529 2.32 2.027 3.92.48 1.582.72 3.458.72 5.627Zm-.56-32.514-22.667 7.84v-9.573l8.187-1.707 7.067-1.227-7.067-1.36-8.187-1.973v-7.2l22.667 6.8v8.4Zm.533-35.138c0 2.791-.844 5.52-2.533 8.187h-4.853c.444-.551.844-1.431 1.2-2.64.337-1.209.506-2.214.506-3.014 0-2.382-.4-4.142-1.2-5.28-.8-1.155-2.133-1.733-4-1.733-1.404 0-2.515.453-3.333 1.36-.818.889-1.227 2.302-1.227 4.24 0 1.973.489 4.178 1.467 6.613l-17.813-1.76v-18.746l6.586 1.84v11.12l5.574 1.12c-.303-.48-.551-1.191-.747-2.134-.213-.942-.32-1.813-.32-2.613 0-1.333.178-2.56.533-3.68a9.452 9.452 0 0 1 1.6-3.12c.711-.942 1.698-1.68 2.96-2.213 1.245-.551 2.711-.827 4.4-.827 3.52 0 6.267 1.102 8.24 3.307 1.974 2.186 2.96 5.511 2.96 9.973Zm-.026-20.143-4.4 4.373h-.934l-4.373-4.373v-1.013l4.373-4.56h.934l4.4 4.56v1.013Zm-12.587-16.697c2.898 0 4.942-.267 6.133-.8 1.174-.534 1.76-1.378 1.76-2.534 0-.853-.195-1.511-.586-1.973-.409-.462-1.28-.827-2.614-1.093-1.351-.267-3.315-.4-5.893-.4h-6.427c-5.031 0-7.546 1.155-7.546 3.466 0 1.174.622 2.027 1.866 2.56 1.245.516 3.449.774 6.614.774h6.693Zm12.64-2.774c0 2.062-.258 3.849-.773 5.36-.534 1.494-1.245 2.702-2.134 3.627-.889.924-2.035 1.662-3.44 2.213a19.197 19.197 0 0 1-4.4 1.094c-1.529.195-3.306.293-5.333.293-2.116 0-3.973-.125-5.573-.373a17.054 17.054 0 0 1-4.454-1.307c-1.386-.622-2.515-1.449-3.386-2.48-.889-1.031-1.583-2.347-2.08-3.947-.498-1.618-.747-3.511-.747-5.68 0-2.062.267-3.849.8-5.36.533-1.529 1.253-2.746 2.16-3.653.907-.925 2.071-1.662 3.493-2.213a18.818 18.818 0 0 1 4.427-1.12c1.511-.196 3.28-.294 5.307-.294 2.115 0 3.973.125 5.573.374 1.6.248 3.084.693 4.453 1.333 1.369.622 2.489 1.458 3.36 2.507.871 1.031 1.547 2.355 2.027 3.973.48 1.6.72 3.484.72 5.653Z"/>
  <path fill="#BBF7FF" d="M414.56 514.493c0 1.368-.124 2.648-.373 3.84-.231 1.173-.543 2.16-.934 2.96-.391.8-.764 1.457-1.12 1.973a8.694 8.694 0 0 1-1.066 1.253l-6.48-.666c.977-.729 1.831-1.707 2.56-2.934a7.786 7.786 0 0 0 1.066-3.973c0-1.422-.151-2.445-.453-3.067-.302-.64-.853-.96-1.653-.96-.854 0-1.583.365-2.187 1.094-.604.711-1.333 1.946-2.187 3.706-.32.64-.604 1.182-.853 1.627-.267.444-.693 1.04-1.28 1.787-.604.728-1.227 1.324-1.867 1.786-.657.462-1.493.871-2.506 1.227a10.092 10.092 0 0 1-3.307.533c-6.347 0-9.52-3.582-9.52-10.746 0-1.138.124-2.205.373-3.2.231-1.014.489-1.805.774-2.374a7.714 7.714 0 0 1 1.013-1.546c.373-.48.64-.783.8-.907.142-.125.258-.213.347-.267l5.146 1.334a6.2 6.2 0 0 0-1.813 2.613c-.409 1.031-.613 2.018-.613 2.96 0 2.275.711 3.413 2.133 3.413.373 0 .711-.071 1.013-.213.303-.142.578-.373.827-.693.249-.32.462-.614.64-.88.178-.285.4-.667.667-1.147a12.8 12.8 0 0 1 .613-1.12c1.102-2.596 2.409-4.498 3.92-5.707 1.511-1.226 3.351-1.84 5.52-1.84 3.52 0 6.204.871 8.053 2.614 1.831 1.724 2.747 4.231 2.747 7.52Zm-12.64-21.999c2.951 0 5.004-.223 6.16-.667 1.156-.462 1.733-1.262 1.733-2.4 0-.836-.204-1.467-.613-1.893-.427-.427-1.289-.747-2.587-.96-1.315-.231-3.28-.347-5.893-.347h-6.427c-2.542 0-4.435.249-5.68.747-1.244.497-1.866 1.315-1.866 2.453s.613 1.938 1.84 2.4c1.209.444 3.422.667 6.64.667h6.693Zm12.64-2.507c0 1.476-.133 2.809-.4 4-.267 1.173-.64 2.187-1.12 3.04a8.266 8.266 0 0 1-1.84 2.24 10.727 10.727 0 0 1-2.4 1.52c-.853.373-1.849.676-2.987.907a29.104 29.104 0 0 1-3.44.48 51.122 51.122 0 0 1-3.893.133c-2.133 0-3.991-.107-5.573-.32a17.388 17.388 0 0 1-4.454-1.253c-1.404-.605-2.542-1.405-3.413-2.4-.871-1.014-1.556-2.311-2.053-3.894-.498-1.6-.747-3.484-.747-5.653 0-1.493.142-2.836.427-4.027.266-1.191.64-2.213 1.12-3.066a7.704 7.704 0 0 1 1.866-2.214 9.902 9.902 0 0 1 2.454-1.52c.853-.391 1.857-.702 3.013-.933a29.132 29.132 0 0 1 3.44-.48 50.092 50.092 0 0 1 3.867-.133c2.133 0 3.991.115 5.573.346 1.582.231 3.067.649 4.453 1.254 1.369.604 2.489 1.413 3.36 2.426.854 1.014 1.529 2.32 2.027 3.92.48 1.583.72 3.458.72 5.627Zm-2.773-36.077.293.24c.178.177.409.48.693.906.267.409.543.907.827 1.494.267.569.489 1.333.667 2.293.195.96.293 1.991.293 3.093 0 2.329-.382 4.32-1.147 5.974-.782 1.653-1.911 2.951-3.386 3.893-1.494.924-3.174 1.591-5.04 2-1.885.409-4.063.613-6.534.613-2.631 0-4.897-.204-6.8-.613-1.92-.409-3.6-1.084-5.04-2.027-1.457-.96-2.551-2.275-3.28-3.946-.729-1.671-1.093-3.707-1.093-6.107 0-1.102.098-2.133.293-3.093.196-.978.418-1.743.667-2.294a8.275 8.275 0 0 1 .853-1.52c.32-.462.543-.746.667-.853.124-.124.222-.213.293-.267l6.134.4v4.054l-3.174 1.386c-.089.32-.133.587-.133.8 0 1.191.276 2.107.827 2.747.533.64 1.591 1.129 3.173 1.467 1.564.337 3.822.506 6.773.506 1.76 0 3.298-.106 4.614-.32 1.315-.231 2.329-.506 3.04-.826.693-.32 1.253-.703 1.68-1.147.426-.444.702-.844.826-1.2.107-.356.16-.738.16-1.147 0-.906-.106-1.857-.32-2.853-.231-.996-.577-1.813-1.04-2.453l4.214-1.2ZM414 436.414c-.267.213-1.307.675-3.12 1.386a242.24 242.24 0 0 0-6.187 2.454c-2.311.924-4.062 1.742-5.253 2.453H414v8.827h-31.253v-8.827h14.96l-14.96-6.64v-8.88l14.666 7.947c.356-.516 1.325-1.2 2.907-2.054a61.775 61.775 0 0 1 4.987-2.4c1.742-.746 3.493-1.52 5.253-2.32 1.742-.8 2.889-1.386 3.44-1.76v9.814Zm0-30.115v18.907h-31.253v-18.507l6.293.533-.267 9.147h6.027v-7.2h6.24l-.533 7.2h7.093l-.267-10.08H414Zm0-7.382h-24.187v6.24h-7.066v-21.493h7.066v6.24H414v9.013Zm0-37.148v8.827h-31.253v-3.52c0-.942-.036-2.364-.107-4.267a103.98 103.98 0 0 1-.133-4.693c0-3.449.915-6.062 2.746-7.84 1.831-1.778 4.578-2.667 8.24-2.667 2.205 0 4.214.294 6.027.88 1.796.569 3.271 1.343 4.427 2.32 1.155.978 2.044 2.089 2.666 3.334a8.698 8.698 0 0 1 .934 3.946v1.067c-.018.142-.027.32-.027.533a5.463 5.463 0 0 0-.027.48 3.306 3.306 0 0 0-.026.48 5.306 5.306 0 0 0-.027.4c0 .072-.009.205-.027.4a11.56 11.56 0 0 0-.026.32H414Zm-21.68-5.413c-1.316 0-2.382.356-3.2 1.067-.818.711-1.227 1.733-1.227 3.066v1.28h13.867v-.986c0-1.405-.471-2.489-1.413-3.254-.943-.782-2.303-1.173-4.08-1.173h-3.947Zm11.28-19.533H414v8.853h-31.253v-3.52c0-.853-.036-2.124-.107-3.813a82.273 82.273 0 0 1-.133-4.187c0-3.84.844-6.702 2.533-8.587 1.689-1.902 4.276-2.853 7.76-2.853 2.062 0 3.893.453 5.493 1.36 1.6.889 2.871 2.071 3.814 3.547.195-.8.649-1.485 1.36-2.054.711-.586 1.555-1.04 2.533-1.36.96-.32 1.938-.595 2.933-.826a54.478 54.478 0 0 0 2.907-.827c.96-.32 1.68-.667 2.16-1.04v9.84c-.249.196-.942.347-2.08.453-1.156.107-2.533.258-4.133.454-1.618.178-2.969.435-4.054.773v1.227c-.017.373-.035.702-.053.986-.018.285-.036.587-.053.907-.018.302-.027.525-.027.667Zm-4.96 0v-.854c0-.444-.018-.817-.053-1.12a7.947 7.947 0 0 0-.187-.986c-.107-.374-.267-.676-.48-.907a3.608 3.608 0 0 0-.827-.693c-.337-.214-.773-.374-1.306-.48a9.596 9.596 0 0 0-1.867-.16h-2.107c-1.546 0-2.622.409-3.226 1.226-.623.8-.934 1.956-.934 3.467v.507h10.987Zm3.28-26.048c2.951 0 5.004-.222 6.16-.667 1.156-.462 1.733-1.262 1.733-2.4 0-.835-.204-1.466-.613-1.893-.427-.427-1.289-.747-2.587-.96-1.315-.231-3.28-.347-5.893-.347h-6.427c-2.542 0-4.435.249-5.68.747-1.244.498-1.866 1.315-1.866 2.453s.613 1.938 1.84 2.4c1.209.445 3.422.667 6.64.667h6.693Zm12.64-2.507c0 1.476-.133 2.809-.4 4-.267 1.174-.64 2.187-1.12 3.04a8.25 8.25 0 0 1-1.84 2.24 10.727 10.727 0 0 1-2.4 1.52c-.853.374-1.849.676-2.987.907a29.104 29.104 0 0 1-3.44.48 51.122 51.122 0 0 1-3.893.133c-2.133 0-3.991-.106-5.573-.32a17.388 17.388 0 0 1-4.454-1.253c-1.404-.605-2.542-1.405-3.413-2.4-.871-1.013-1.556-2.311-2.053-3.893-.498-1.6-.747-3.485-.747-5.654 0-1.493.142-2.835.427-4.026.266-1.192.64-2.214 1.12-3.067a7.7 7.7 0 0 1 1.866-2.213 9.873 9.873 0 0 1 2.454-1.52c.853-.392 1.857-.703 3.013-.934a29.132 29.132 0 0 1 3.44-.48 50.092 50.092 0 0 1 3.867-.133c2.133 0 3.991.115 5.573.347a17.34 17.34 0 0 1 4.453 1.253c1.369.604 2.489 1.413 3.36 2.427.854 1.013 1.529 2.32 2.027 3.92.48 1.582.72 3.457.72 5.626Zm-3.387-35.384c2.258 2.258 3.387 4.942 3.387 8.054 0 2.204-.382 4.115-1.147 5.733-.764 1.6-1.866 2.871-3.306 3.813-1.44.942-3.085 1.636-4.934 2.08-1.849.427-3.955.64-6.32.64-1.76 0-3.342-.089-4.746-.266a22.535 22.535 0 0 1-4.027-.934c-1.28-.426-2.382-1.013-3.307-1.76a11.073 11.073 0 0 1-2.453-2.746c-.693-1.085-1.209-2.4-1.547-3.947-.355-1.547-.533-3.307-.533-5.28 0-.889.053-1.733.16-2.533.107-.818.24-1.512.4-2.08a8.904 8.904 0 0 1 .56-1.6c.213-.516.409-.916.587-1.2a5.43 5.43 0 0 1 .533-.827c.196-.249.329-.4.4-.453l.16-.16 6.133.4v4.853l-3.546 1.52c-.214.391-.32 1.022-.32 1.893 0 .711.062 1.298.186 1.76.125.462.391.925.8 1.387.391.444.969.8 1.734 1.067.746.248 1.769.453 3.066.613 1.28.16 2.845.24 4.694.24 3.857 0 6.72-.205 8.586-.613 1.867-.427 2.8-1.272 2.8-2.534 0-.622-.053-1.146-.16-1.573a3.396 3.396 0 0 0-.64-1.2c-.32-.373-.782-.649-1.386-.827-.623-.178-1.414-.266-2.374-.266h-2.72l-.8 3.52h-5.44v-11.867l18.347.027v4.746l-2.827.32Zm-7.573-16.53H414v8.853h-31.253v-3.52c0-.853-.036-2.124-.107-3.813a82.24 82.24 0 0 1-.133-4.187c0-3.84.844-6.702 2.533-8.586 1.689-1.902 4.276-2.854 7.76-2.854 2.062 0 3.893.454 5.493 1.36 1.6.889 2.871 2.072 3.814 3.547.195-.8.649-1.484 1.36-2.053.711-.587 1.555-1.04 2.533-1.36.96-.32 1.938-.596 2.933-.827a53.557 53.557 0 0 0 2.907-.827c.96-.32 1.68-.666 2.16-1.04v9.84c-.249.196-.942.347-2.08.454-1.156.106-2.533.258-4.133.453-1.618.178-2.969.436-4.054.773v1.227a56.71 56.71 0 0 1-.053.987c-.018.284-.036.586-.053.906-.018.303-.027.525-.027.667Zm-4.96 0v-.853c0-.445-.018-.818-.053-1.12a7.995 7.995 0 0 0-.187-.987c-.107-.373-.267-.675-.48-.907a3.634 3.634 0 0 0-.827-.693c-.337-.213-.773-.373-1.306-.48a9.596 9.596 0 0 0-1.867-.16h-2.107c-1.546 0-2.622.409-3.226 1.227-.623.8-.934 1.955-.934 3.466v.507h10.987ZM414 224.013l-4.987 1.2v7.573l4.987 1.013v7.84l-29.093-8.133-2.16.64v-11.013L414 214.226v9.787Zm-22.08 5.333 11.653 2.347v-5.174l-11.653 2.827ZM414 206.401v8.027l-31.253-2.48v-12.507l10.48-2.347 5.306-1.066-5.28-1.014-10.506-2.08v-11.146L414 179.494v8.294l-18.373 1.36-6.774.32 22.027 4.08v6.96l-22.027 4.906 6.774.16 18.373.827Zm0-36.016v8.027l-31.253-2.48v-12.507l10.48-2.346 5.306-1.067-5.28-1.013-10.506-2.08v-11.147L414 143.479v8.293l-18.373 1.36-6.774.32 22.027 4.08v6.96l-22.027 4.907 6.774.16 18.373.826Zm0-29.322h-31.253v-9.093H414v9.093Zm0-21.212v8.48h-28.747l-2.506 1.306v-9.813l10.133-4.907 10.107-4.693-11.867 1.307h-8.373v-8.507H414v8.133l-12.347 6.347-7.733 3.92 10.24-1.573H414Zm-2.827-39.467c2.258 2.258 3.387 4.942 3.387 8.054 0 2.204-.382 4.115-1.147 5.733-.764 1.6-1.866 2.871-3.306 3.813-1.44.943-3.085 1.636-4.934 2.08-1.849.427-3.955.64-6.32.64-1.76 0-3.342-.089-4.746-.266a22.57 22.57 0 0 1-4.027-.934c-1.28-.426-2.382-1.013-3.307-1.76a11.082 11.082 0 0 1-2.453-2.746c-.693-1.085-1.209-2.4-1.547-3.947-.355-1.547-.533-3.307-.533-5.28 0-.889.053-1.733.16-2.533.107-.818.24-1.511.4-2.08a8.929 8.929 0 0 1 .56-1.6c.213-.516.409-.916.587-1.2.16-.303.337-.578.533-.827s.329-.4.4-.453l.16-.16 6.133.4v4.853l-3.546 1.52c-.214.391-.32 1.022-.32 1.893 0 .711.062 1.298.186 1.76.125.463.391.925.8 1.387.391.444.969.8 1.734 1.067.746.248 1.769.453 3.066.613 1.28.16 2.845.24 4.694.24 3.857 0 6.72-.204 8.586-.613 1.867-.427 2.8-1.272 2.8-2.534 0-.622-.053-1.146-.16-1.573a3.402 3.402 0 0 0-.64-1.2c-.32-.373-.782-.649-1.386-.827-.623-.177-1.414-.266-2.374-.266h-2.72l-.8 3.52h-5.44V75.29l18.347.027v4.746l-2.827.32Z"/>
</svg>
